<?xml version="1.0" standalone="no"?><!DOCTYPE svg PUBLIC "-//W3C//DTD SVG 1.1//EN" "http://www.w3.org/Graphics/SVG/1.1/DTD/svg11.dtd"><svg t="1753348126279" class="icon" viewBox="0 0 1047 1024" version="1.1" xmlns="http://www.w3.org/2000/svg" p-id="1549" xmlns:xlink="http://www.w3.org/1999/xlink" width="204.4921875" height="200"><path d="M889.576727 334.545455c8.261818 0.023273 14.964364 6.725818 14.952728 14.999272v52.503273c0 8.261818-6.725818 14.964364-14.987637 14.952727h-0.034909c-8.261818 0-14.964364-6.714182-14.952727-14.987636v-37.480727H29.986909v389.806545h579.700364a14.987636 14.987636 0 0 1 0 29.975273H14.952727c-8.261818 0-14.964364-6.714182-14.952727-14.987637V349.509818c0-8.261818 6.725818-14.964364 14.987636-14.952727h874.589091z m-101.701818-69.585455a14.987636 14.987636 0 0 1-6.574545 29.242182L96.325818 140.090182 64.616727 282.833455a14.999273 14.999273 0 0 1-29.288727-6.516364l34.990545-157.416727c0.872727-3.886545 3.246545-7.261091 6.609455-9.402182 3.362909-2.129455 7.435636-2.827636 11.310545-1.966546L787.898182 264.96z m-84.945454-86.737455a15.034182 15.034182 0 1 1-11.578182 27.729455L284.509091 36.456727l-28.695273 57.437091v-0.034909c-0.139636 0.290909-0.279273 0.581818-0.442182 0.872727a15.045818 15.045818 0 1 1-26.461091-14.312727L263.901091 10.472727a15.045818 15.045818 0 0 1 19.246545-7.156363l419.781819 174.917818z m10.58909 226.292364a14.987636 14.987636 0 0 1 0 29.975273h-138.821818a14.987636 14.987636 0 0 1 0-29.975273h138.821818z m-278.74909 1.000727c85.015273 0 153.925818 68.910545 153.925818 153.914182 0 85.015273-68.910545 153.925818-153.925818 153.925818-84.968727-0.093091-153.832727-68.945455-153.914182-153.925818 0-85.003636 68.910545-153.914182 153.914182-153.914182z m0 279.854546c69.562182 0 125.940364-56.378182 125.940363-125.940364 0-69.550545-56.378182-125.928727-125.940363-125.928727-69.515636 0.069818-125.858909 56.413091-125.928728 125.928727 0 69.562182 56.378182 125.940364 125.928728 125.940364z m419.781818-230.877091c92.706909 0 192.407273 21.888 192.407272 69.957818v419.781818c0 48.058182-99.700364 69.969455-192.407272 69.969455-92.695273 0-192.395636-21.899636-192.395637-69.969455V524.450909c0-48.058182 99.700364-69.957818 192.395637-69.957818z m157.428363 489.483636V916.712727c-37.201455 18.676364-98.699636 27.508364-157.428363 27.508364-58.717091 0-120.192-8.738909-157.416728-27.496727v27.496727c2.641455 9.448727 55.098182 34.990545 157.416728 34.990545 102.330182 0 154.786909-25.541818 157.428363-35.258181z m0-69.969454v-27.252364c-37.201455 18.688-98.699636 27.52-157.428363 27.52-58.717091 0-120.192-8.750545-157.416728-27.496727v27.496727c2.641455 9.437091 55.098182 34.978909 157.416728 34.978909 102.330182 0 154.786909-25.541818 157.428363-35.246545z m0-69.957818v-27.252364c-37.201455 18.676364-98.699636 27.508364-157.428363 27.508364-58.717091 0-120.192-8.738909-157.416728-27.496728v27.496728c2.641455 9.448727 55.098182 34.978909 157.416728 34.978909 102.330182 0 154.786909-25.530182 157.428363-35.234909z m0-69.969455v-27.252364c-37.201455 18.688-98.699636 27.52-157.428363 27.52-58.717091 0-120.192-8.750545-157.416728-27.496727v27.496727c2.641455 9.437091 55.098182 34.978909 157.416728 34.978909 102.330182 0 154.786909-25.541818 157.428363-35.246545z m0-69.957818V636.858182c-37.201455 18.676364-98.699636 27.508364-157.428363 27.508363-58.717091 0-120.192-8.832-157.416728-27.496727v27.496727c2.641455 9.448727 55.098182 34.978909 157.416728 34.97891 102.330182 0 154.786909-25.530182 157.428363-35.23491z m0-69.969455v-27.252363c-37.201455 18.688-98.699636 27.52-157.428363 27.52-58.717091 0-120.192-8.843636-157.416728-27.496728v27.496728c2.641455 9.437091 55.098182 34.978909 157.416728 34.978909 102.330182 0 154.786909-25.541818 157.428363-35.246546z m-157.428363-34.722909c101.457455 0 153.925818-25.076364 157.428363-34.978909-3.490909-9.890909-55.970909-34.978909-157.428363-34.978909-102.167273 0-154.600727 25.448727-157.416728 35.188364v0.116363c2.816 9.192727 55.261091 34.653091 157.416728 34.653091z m-559.709091 124.928a14.987636 14.987636 0 1 1 0 29.975273H155.997091c-4.212364 0-8.226909-1.768727-11.066182-4.887273l-71.063273-77.730909a15.010909 15.010909 0 0 1-3.921454-10.100364V497.221818c0-4.491636 1.594182-8.843636 4.514909-12.241454l78.126545-76.218182a15.010909 15.010909 0 0 1 10.496-4.247273h131.758546a14.987636 14.987636 0 0 1 0 29.975273h-125.672727l-69.236364 67.607273v113.687272l62.696727 68.573091h132.212364z m148.677818-142.417454a41.774545 41.774545 0 0 1 43.729455 39.447272 40.727273 40.727273 0 0 1-34.990546 38.481455v0.779636a17.489455 17.489455 0 0 1-34.978909 0h-17.489455a17.489455 17.489455 0 0 1 0-34.978909h43.729455c5.434182 0 8.738909-3.048727 8.738909-4.375273 0-1.326545-3.304727-4.375273-8.738909-4.375272h-17.489455a41.774545 41.774545 0 0 1-43.729454-39.447273 40.727273 40.727273 0 0 1 34.978909-38.469818v-0.791273a17.489455 17.489455 0 0 1 34.978909 0h17.501091a17.489455 17.489455 0 0 1 0 34.990546h-43.729455c-5.445818 0-8.750545 3.037091-8.750545 4.363636 0 1.338182 3.304727 4.375273 8.750545 4.375273h17.489455z" fill="#229FFF" p-id="1550"></path></svg>