<?xml version="1.0" standalone="no"?><!DOCTYPE svg PUBLIC "-//W3C//DTD SVG 1.1//EN" "http://www.w3.org/Graphics/SVG/1.1/DTD/svg11.dtd"><svg t="1753347996691" class="icon" viewBox="0 0 1024 1024" version="1.1" xmlns="http://www.w3.org/2000/svg" p-id="2751" xmlns:xlink="http://www.w3.org/1999/xlink" width="200" height="200"><path d="M543.27 81.512l336 188.16a64 64 0 0 1 32.73 55.84v372.976a64 64 0 0 1-32.73 55.84l-336 188.16a64 64 0 0 1-62.54 0l-336-188.16a64 64 0 0 1-32.73-55.84V325.512a64 64 0 0 1 32.73-55.84l336-188.16a64 64 0 0 1 62.54 0zM512 137.35l-336 188.16v372.977l336 188.16 336-188.161V325.512L512 137.351z m69.426 389.4l173.205 100c26.784 15.464 35.961 49.713 20.497 76.498l-173.205-100c-26.516-15.31-35.776-49.03-20.954-75.692l0.457-0.806z m-138.852 0c15.464 26.785 6.287 61.034-20.497 76.498l-173.205 100c-15.464-26.785-6.287-61.034 20.497-76.498l173.205-100zM512 479c22.091 0 40 17.909 40 40s-17.909 40-40 40-40-17.909-40-40 17.909-40 40-40z m28.5-280v200c0 30.619-24.573 55.498-55.074 55.992l-0.926 0.008V255c0-30.619 24.573-55.498 55.074-55.992l0.926-0.008z" fill="#0840F8" p-id="2752"></path></svg>