<?xml version="1.0" standalone="no"?><!DOCTYPE svg PUBLIC "-//W3C//DTD SVG 1.1//EN" "http://www.w3.org/Graphics/SVG/1.1/DTD/svg11.dtd"><svg t="1753347807454" class="icon" viewBox="0 0 1024 1024" version="1.1" xmlns="http://www.w3.org/2000/svg" p-id="2585" xmlns:xlink="http://www.w3.org/1999/xlink" width="200" height="200"><path d="M427.679289 263.213511h-155.192889c-14.449778 0-27.761778 6.735644-35.475911 17.737956-5.575111 7.714133-8.874667 16.5888-8.874667 26.601244v155.192889c0 24.462222 20.036267 44.3392 44.350578 44.3392h155.192889c24.462222 0 44.3392-20.024889 44.3392-44.3392v-155.192889a44.475733 44.475733 0 0 0-44.3392-44.3392z m0.227555 216.291556v5.575111-5.575111z m-0.227555 72.0896h-155.192889a44.475733 44.475733 0 0 0-44.350578 44.3392v155.192889c0 24.462222 20.036267 44.3392 44.350578 44.3392h155.192889c24.462222 0 44.3392-20.024889 44.3392-44.3392v-155.192889a44.373333 44.373333 0 0 0-44.3392-44.3392z m0.227555 210.705066v11.1616V762.311111zM717.220978 551.594667h-155.192889a44.475733 44.475733 0 0 0-44.350578 44.3392v155.192889c0 24.462222 20.036267 44.3392 44.350578 44.3392h155.192889c24.462222 0 44.3392-20.024889 44.3392-44.3392v-155.192889c0-24.462222-20.036267-44.3392-44.3392-44.3392zM754.596978 351.573333l-94.0032-94.0032c-8.749511-8.760889-20.878222-12.743111-32.221867-10.740622-8.055467 1.285689-15.416889 4.664889-21.481244 10.740622L512.887467 351.573333a38.0928 38.0928 0 0 0 0 53.703111l94.0032 94.0032a38.0928 38.0928 0 0 0 53.703111 0l94.0032-94.0032a38.0928 38.0928 0 0 0 0-53.703111z" fill="#3085FF" p-id="2586"></path></svg>