<?xml version="1.0" standalone="no"?><!DOCTYPE svg PUBLIC "-//W3C//DTD SVG 1.1//EN" "http://www.w3.org/Graphics/SVG/1.1/DTD/svg11.dtd"><svg t="1753347640836" class="icon" viewBox="0 0 1024 1024" version="1.1" xmlns="http://www.w3.org/2000/svg" p-id="2571" xmlns:xlink="http://www.w3.org/1999/xlink" width="200" height="200"><path d="M872.448 0 464.128 0c-67.584 0-122.624 55.04-122.624 122.624l0 169.984-304.896 212.224c-4.864 3.328-7.68 8.704-7.68 14.592L28.928 1006.336c0 9.728 7.936 17.664 17.664 17.664 9.728 0 17.664-7.936 17.664-17.664L64.256 528.896l277.248-193.024 0 261.12-97.024 78.336c-7.68 6.144-8.704 17.408-2.56 24.832 6.144 7.68 17.408 8.704 24.832 2.56l200.192-161.792c9.728-5.632 95.232-52.224 141.568 7.936 60.928 79.36-7.424 149.248-21.504 162.56-37.376 34.56-350.72 274.688-354.048 277.248-7.68 5.888-9.216 17.152-3.328 24.832 3.584 4.608 8.704 6.912 14.08 6.912 3.84 0 7.68-1.28 10.752-3.584 5.376-4.096 58.368-44.8 122.368-94.208 23.04 24.832 53.76 38.4 87.552 38.4l408.32 0c67.584 0 122.624-55.04 122.624-122.624L995.328 122.88C995.072 55.296 940.032 0 872.448 0zM404.992 901.12c87.808-68.096 185.088-144.128 205.824-163.328 50.432-46.592 87.552-129.792 25.6-210.176-54.528-70.912-147.456-41.472-188.928-16.128-0.768 0.512-1.28 0.768-1.792 1.28L376.832 568.576 376.832 122.88c0-48.128 39.168-87.296 87.296-87.296l329.984 0 0 890.368L464.128 925.952C441.6 925.952 420.864 917.248 404.992 901.12zM959.744 838.656c0 48.128-39.168 87.296-87.296 87.296L829.44 925.952 829.44 35.584l43.008 0c48.128 0 87.296 39.168 87.296 87.296L959.744 838.656z" fill="#7C88FF" p-id="2572"></path></svg>